<svg width="480" height="496" viewBox="0 0 480 496" fill="none" xmlns="http://www.w3.org/2000/svg">
<rect opacity="0.01" width="480" height="496" fill="white"/>
<path d="M98.6725 97.8664C98.4389 97.8664 98.2045 97.8547 97.9694 97.8313C95.0745 97.5438 92.2741 95.7094 90.2866 92.8C90.2059 92.682 90.1943 92.5298 90.2563 92.4009C90.3182 92.2721 90.4442 92.186 90.5867 92.1752C90.7293 92.1643 90.8668 92.2304 90.9475 92.3485C92.801 95.0625 95.3893 96.7711 98.0483 97.036C101.058 97.3227 104.045 95.4586 104.709 92.8547C105.107 90.9677 104.494 89.0095 103.09 87.6867C102.346 87.0189 101.268 86.8768 100.376 87.3289C99.5714 87.7401 99.1705 88.6634 99.4194 89.532C99.7042 90.6205 100.715 91.359 101.838 91.3C101.862 91.3 101.888 91.2992 101.908 91.2992C102.129 91.2972 102.31 91.4746 102.312 91.6955C102.314 91.9164 102.137 92.0972 101.916 92.0992C100.398 92.193 99.0267 91.1988 98.6436 89.7273C98.2918 88.4914 98.8726 87.1806 100.024 86.6109C101.199 86.0178 102.616 86.2001 103.601 87.0711C105.229 88.6006 105.942 90.8672 105.484 93.0531C104.778 95.818 101.81 97.8664 98.6725 97.8664Z" fill="black"/>
<path d="M48.9636 260.786C48.4105 260.779 47.8746 260.593 47.4358 260.257C46.1115 259.172 45.4601 257.468 45.7237 255.776C46.1659 253.478 48.6249 251.71 51.2214 251.792C53.642 252 55.8487 253.262 57.2558 255.243C57.3905 255.417 57.3584 255.668 57.184 255.803C57.0096 255.939 56.7587 255.907 56.623 255.733C55.3605 253.94 53.3742 252.791 51.1902 252.592C48.9601 252.509 46.88 254.002 46.5097 255.928C46.3143 257.314 46.8425 258.704 47.9093 259.611C48.4611 260.059 49.2337 260.114 49.8433 259.749C50.3876 259.433 50.6267 258.772 50.4105 258.182C50.1541 257.413 49.3868 256.935 48.5835 257.044C48.3641 257.059 48.173 256.896 48.1535 256.677C48.1452 256.571 48.1793 256.467 48.2482 256.386C48.3172 256.305 48.4153 256.255 48.5211 256.247C49.6963 256.104 50.8083 256.814 51.173 257.94C51.5063 258.892 51.1126 259.945 50.2371 260.445C49.8478 260.663 49.4099 260.78 48.9636 260.786Z" fill="black"/>
<path d="M409.294 213.672C409.21 213.672 409.127 213.646 409.058 213.596C408.074 212.77 407.489 211.562 407.453 210.277C407.245 208.28 407.834 206.281 409.092 204.716C411.116 202.726 413.926 201.749 416.748 202.055C419.075 202.296 421.208 203.466 422.661 205.301C423.648 206.72 423.91 208.521 423.368 210.163C422.816 211.495 421.584 212.422 420.151 212.582C418.534 212.961 416.871 212.169 416.146 210.676C415.565 209.651 415.75 208.363 416.597 207.544C416.765 207.401 417.017 207.422 417.159 207.59C417.302 207.758 417.281 208.01 417.114 208.153C416.55 208.74 416.449 209.633 416.868 210.331C417.432 211.502 418.743 212.115 420.004 211.796C421.162 211.678 422.165 210.941 422.623 209.87C423.066 208.486 422.843 206.974 422.019 205.777C420.709 204.124 418.786 203.069 416.688 202.854C414.106 202.564 411.531 203.45 409.673 205.265C408.569 206.661 408.057 208.434 408.25 210.204C408.269 211.259 408.734 212.256 409.53 212.949C409.67 213.051 409.729 213.232 409.675 213.396C409.621 213.561 409.468 213.673 409.294 213.672L409.294 213.672Z" fill="black"/>
<path d="M242.774 330.224C239.827 330.109 237.164 328.433 235.786 325.825C234.506 323.503 234.072 320.589 234.499 317.163C234.516 317.021 234.608 316.9 234.74 316.844C234.871 316.788 235.023 316.807 235.137 316.893C235.251 316.979 235.31 317.12 235.292 317.262C234.888 320.516 235.289 323.268 236.486 325.439C237.778 327.914 240.353 329.45 243.144 329.412C244.599 329.4 245.976 328.754 246.917 327.644C247.694 326.599 247.981 325.269 247.703 323.997C247.339 322.58 246.141 321.532 244.689 321.358C243.674 321.152 242.645 321.64 242.163 322.556C242.064 322.753 241.824 322.833 241.626 322.734C241.429 322.636 241.349 322.396 241.447 322.198C242.072 320.964 243.442 320.296 244.799 320.566C246.59 320.792 248.056 322.098 248.489 323.85C248.811 325.347 248.467 326.91 247.549 328.134C246.47 329.429 244.88 330.187 243.196 330.211C243.056 330.22 242.914 330.224 242.774 330.224Z" fill="black"/>
<path fill-rule="evenodd" clip-rule="evenodd" d="M44.1348 118.976C44.1349 121.119 45.8727 122.857 48.0165 122.857C50.1593 122.854 51.8957 121.118 51.8981 118.975C51.8978 116.831 50.1599 115.094 48.0161 115.094C45.8724 115.094 44.1347 116.832 44.1348 118.976ZM45.1693 117.796C45.6463 116.645 46.77 115.894 48.0165 115.894C49.7175 115.896 51.0961 117.274 51.0981 118.975C51.0982 120.221 50.3475 121.345 49.196 121.822C48.0444 122.299 46.7189 122.036 45.8375 121.155C44.9561 120.273 44.6923 118.948 45.1693 117.796Z" fill="black"/>
<path fill-rule="evenodd" clip-rule="evenodd" d="M466.832 165.319C466.832 167.463 468.57 169.201 470.713 169.201C472.856 169.199 474.593 167.462 474.595 165.319C474.595 163.175 472.857 161.437 470.714 161.438C468.57 161.438 466.832 163.175 466.832 165.319ZM467.632 165.32C467.632 163.618 469.011 162.238 470.713 162.238C472.415 162.239 473.794 163.617 473.795 165.319C473.796 167.021 472.416 168.401 470.714 168.401C469.012 168.401 467.632 167.021 467.632 165.32Z" fill="black"/>
<path d="M420.191 92.4592C420.028 92.4592 419.881 92.3603 419.82 92.2092C419.759 92.0582 419.796 91.8851 419.913 91.7717C420.708 91.0073 421.034 89.8762 420.768 88.8058C420.502 87.7354 419.683 86.8889 418.623 86.5863C417.562 86.2837 416.42 86.571 415.629 87.3398C415.471 87.4934 415.217 87.4892 415.064 87.3304C414.91 87.1716 414.914 86.9184 415.073 86.7648C416.07 85.7997 417.506 85.4401 418.84 85.8215C420.174 86.203 421.203 87.2675 421.539 88.6137C421.875 89.9599 421.467 91.3831 420.469 92.3468C420.395 92.4189 420.295 92.4592 420.191 92.4592Z" fill="black"/>
<path d="M125.337 17.3807C125.193 17.3809 125.06 17.3033 124.989 17.1776C124.305 15.971 124.317 14.4915 125.02 13.2962C125.723 12.101 127.011 11.3716 128.397 11.3829C129.784 11.3942 131.059 12.1445 131.743 13.351C131.851 13.5431 131.783 13.786 131.591 13.8945C131.399 14.0029 131.156 13.9359 131.047 13.7448C130.505 12.7858 129.492 12.1892 128.39 12.1801C127.288 12.171 126.266 12.7506 125.707 13.7005C125.149 14.6503 125.141 15.8259 125.685 16.7838C125.737 16.876 125.751 16.9852 125.722 17.0874C125.694 17.1895 125.626 17.2762 125.534 17.3283C125.474 17.3628 125.406 17.3809 125.337 17.3807Z" fill="black"/>
<path fill-rule="evenodd" clip-rule="evenodd" d="M268.556 195.165C269.003 196.244 270.055 196.948 271.224 196.948C272.818 196.946 274.11 195.654 274.112 194.06C274.112 192.892 273.409 191.839 272.329 191.392C271.25 190.945 270.008 191.192 269.182 192.018C268.356 192.843 268.109 194.085 268.556 195.165ZM269.136 194.06C269.136 192.907 270.071 191.972 271.224 191.972V191.972C272.376 191.973 273.311 192.907 273.312 194.06C273.312 195.213 272.377 196.148 271.224 196.148C270.071 196.148 269.136 195.213 269.136 194.06Z" fill="black"/>
<path fill-rule="evenodd" clip-rule="evenodd" d="M445.04 289.897C445.126 291.432 446.396 292.632 447.933 292.632C448.151 292.632 448.369 292.607 448.581 292.559C450.079 292.215 451.049 290.761 450.79 289.246C450.531 287.731 449.134 286.682 447.607 286.855C446.08 287.028 444.953 288.363 445.04 289.897ZM447.475 287.707C447.629 287.672 447.786 287.654 447.943 287.654C449.043 287.655 449.951 288.514 450.013 289.612C450.074 290.71 449.268 291.665 448.175 291.789C447.083 291.913 446.083 291.163 445.897 290.079C445.711 288.995 446.404 287.954 447.475 287.707Z" fill="black"/>
<path fill-rule="evenodd" clip-rule="evenodd" d="M371.359 10.6875C371.866 11.6072 372.832 12.1794 373.882 12.1818C374.1 12.1817 374.318 12.1571 374.53 12.1084C375.278 11.9401 375.927 11.4795 376.333 10.8295C377.18 9.47903 376.773 7.69762 375.423 6.8494C374.074 6.00118 372.292 6.40697 371.443 7.75602C370.884 8.64536 370.852 9.76779 371.359 10.6875ZM373.424 7.2568C373.577 7.22179 373.734 7.20397 373.892 7.20368C374.993 7.2044 375.902 8.06419 375.963 9.16328C376.025 10.2624 375.218 11.2186 374.125 11.3428C373.031 11.467 372.03 10.7158 371.844 9.63083C371.658 8.54584 372.351 7.50422 373.424 7.2568Z" fill="black"/>
<path fill-rule="evenodd" clip-rule="evenodd" d="M280.549 49.982C280.549 51.5772 281.842 52.8703 283.437 52.8703C285.032 52.8688 286.324 51.5765 286.325 49.982C286.325 48.3869 285.032 47.0938 283.437 47.0938C281.842 47.0938 280.549 48.3869 280.549 49.982ZM281.349 49.982C281.349 48.8287 282.284 47.8937 283.437 47.8937C284.59 47.895 285.524 48.8292 285.525 49.982C285.525 51.1354 284.59 52.0703 283.437 52.0703C282.284 52.0703 281.349 51.1354 281.349 49.982Z" fill="black"/>
<path fill-rule="evenodd" clip-rule="evenodd" d="M69.8646 330.939C70.3118 332.019 71.365 332.722 72.5333 332.722C74.1276 332.72 75.4195 331.428 75.4212 329.834C75.4212 328.665 74.7174 327.612 73.6381 327.165C72.5588 326.718 71.3164 326.965 70.4904 327.791C69.6644 328.618 69.4174 329.86 69.8646 330.939ZM70.6037 329.034C70.927 328.254 71.6886 327.745 72.5333 327.745V327.745C73.6859 327.747 74.6199 328.681 74.6212 329.834C74.6212 330.678 74.1123 331.44 73.332 331.763C72.5516 332.086 71.6533 331.908 71.0561 331.31C70.4589 330.713 70.2803 329.815 70.6037 329.034Z" fill="black"/>
<path d="M8.48841 202.979C7.45552 202.981 6.50035 202.431 5.98341 201.536C5.46647 200.642 5.46647 199.54 5.98341 198.646C6.50035 197.751 7.45552 197.201 8.48841 197.203C8.70932 197.203 8.88841 197.382 8.88841 197.603C8.88841 197.824 8.70932 198.003 8.48841 198.003C7.7415 198.002 7.0507 198.399 6.67683 199.046C6.30295 199.692 6.30295 200.49 6.67683 201.136C7.0507 201.783 7.7415 202.18 8.48841 202.179C8.70932 202.179 8.88841 202.358 8.88841 202.579C8.88841 202.8 8.70932 202.979 8.48841 202.979Z" fill="black"/>
<path d="M24.1377 370.369C23.064 370.367 22.0797 369.77 21.5824 368.819C21.085 367.867 21.1567 366.718 21.7685 365.836C21.8945 365.654 22.1437 365.61 22.3252 365.736C22.5066 365.862 22.5516 366.111 22.4256 366.292C21.7718 367.24 22.0087 368.538 22.9552 369.194C23.9016 369.85 25.2004 369.616 25.8584 368.671C25.9396 368.553 26.0778 368.487 26.2206 368.499C26.3634 368.511 26.489 368.598 26.5499 368.728C26.6108 368.858 26.5976 369.01 26.5154 369.127C25.9748 369.907 25.086 370.371 24.1377 370.369Z" fill="black"/>
<path fill-rule="evenodd" clip-rule="evenodd" d="M300.607 357.212C301.054 358.292 302.107 358.995 303.275 358.995C304.87 358.994 306.162 357.702 306.163 356.107C306.163 354.939 305.46 353.886 304.38 353.439C303.301 352.992 302.059 353.239 301.233 354.065C300.407 354.891 300.16 356.133 300.607 357.212ZM301.346 355.308C301.669 354.528 302.43 354.019 303.275 354.019C304.428 354.02 305.362 354.954 305.363 356.107C305.363 356.952 304.855 357.713 304.074 358.036C303.294 358.36 302.396 358.181 301.798 357.584C301.201 356.987 301.023 356.088 301.346 355.308Z" fill="black"/>
<path fill-rule="evenodd" clip-rule="evenodd" d="M56.5391 34.5677C56.5391 36.1626 57.8321 37.4555 59.427 37.4555C61.0213 37.4536 62.3132 36.1615 62.3148 34.5672C62.3146 32.9723 61.0216 31.6795 59.4267 31.6797C57.8318 31.6798 56.539 32.9728 56.5391 34.5677ZM57.498 33.7687C57.8211 32.9884 58.5824 32.4797 59.427 32.4797C60.5793 32.4811 61.5132 33.4148 61.5148 34.5672C61.515 35.4117 61.0064 36.1731 60.2262 36.4964C59.446 36.8197 58.5479 36.6412 57.9507 36.0441C57.3535 35.447 57.1748 34.5489 57.498 33.7687Z" fill="black"/>
<path d="M206.813 142.462C218.632 144.286 230.23 144.621 235.668 144.169C242.315 143.616 247.283 143.293 250.932 137.724C253.423 133.921 252.494 126.506 246.242 118.189C239.446 109.148 213.807 77.4415 203.144 70.0676C202.26 69.422 201.043 66.8851 200.026 65.656C198.913 64.3092 196.663 63.0735 196.139 63.1959L198.026 71.213L198.277 74.2911C212.311 90.1927 230.827 115.696 233.934 120.136C237.641 125.431 234.702 127.611 224.615 127.251C219.686 126.785 214.789 126.038 209.945 125.013L206.813 142.462Z" fill="white"/>
<path d="M206.707 142.847C213.69 143.925 220.735 144.551 227.798 144.721C232.693 144.827 237.818 144.772 242.623 143.727C246.646 142.851 250.688 140.319 252.087 136.241C253.601 131.83 251.8 126.75 249.715 122.848C247.822 119.306 245.227 116.17 242.749 113.025C240.154 109.732 237.522 106.469 234.852 103.237C228.524 95.5522 222.059 87.9568 215.215 80.7253C212.231 77.4718 209.053 74.4012 205.7 71.5302C205.106 71.0379 204.494 70.572 203.881 70.1047C202.803 69.1319 201.908 67.9747 201.237 66.6874C200.205 65.0899 198.236 62.8251 196.138 62.7969C196.014 62.7987 195.898 62.8574 195.823 62.9561C195.748 63.0548 195.722 63.1826 195.753 63.3026L197.256 69.6849C197.429 70.3468 197.566 71.0177 197.666 71.6945C197.767 72.5545 197.597 73.6964 197.932 74.4933C198.24 75.2261 199.262 76.0207 199.785 76.6272C200.399 77.3379 201.009 78.0515 201.615 78.7682C203.003 80.4069 204.375 82.0579 205.733 83.7213C208.541 87.1542 211.305 90.6226 214.025 94.1265C218.902 100.386 223.686 106.718 228.375 113.122C229.803 115.068 231.221 117.022 232.628 118.983C233.693 120.473 235.86 122.867 234.838 124.79C234.026 126.318 231.503 126.583 230.014 126.739C227.462 126.976 224.892 126.94 222.348 126.629C218.217 126.177 214.112 125.509 210.051 124.628C209.839 124.572 209.621 124.696 209.56 124.907L206.428 142.356C206.338 142.859 207.108 143.075 207.199 142.568L208.555 135.012L209.57 129.358C209.769 128.246 210.351 126.711 210.247 125.583C210.172 124.759 210.384 125.655 209.941 125.421C210.59 125.641 211.264 125.778 211.948 125.827C214.902 126.398 217.875 126.881 220.86 127.253C224.051 127.73 227.289 127.808 230.499 127.483C231.959 127.3 233.677 127.016 234.834 126.015C237.022 124.122 235.206 121.25 233.914 119.417C232.038 116.755 230.107 114.131 228.175 111.509C221.57 102.543 214.82 93.6754 207.813 85.0182C205.721 82.4328 203.598 79.8725 201.444 77.3371C200.663 76.4216 199.191 75.2751 198.671 74.2311C198.345 73.5756 198.54 72.2996 198.454 71.5681C198.12 68.7253 197.18 65.8775 196.524 63.0902L196.139 63.596C198.896 63.6332 200.555 67.2866 201.87 69.1768C202.742 70.2228 203.76 71.1382 204.892 71.895C207.593 74.1644 210.163 76.5848 212.591 79.1448C218.911 85.6344 224.846 92.5037 230.665 99.4426C235.501 105.208 240.27 111.04 244.849 117.013C250.198 123.989 256.853 137.009 245.39 142.025C240.656 144.096 234.65 143.984 229.556 143.948C221.975 143.866 214.411 143.24 206.919 142.077C206.416 142.001 206.199 142.77 206.707 142.847Z" fill="black"/>
<path d="M171.027 108.136C170.005 105.366 170.393 95.2885 175.441 93.1337C178.571 91.7977 184.175 95.1213 188.291 94.8373C194.012 94.4424 194.865 89.0046 196.329 85.1709C196.502 84.7187 196.705 83.8598 197.661 83.9512C198.354 84.0175 198.833 84.1184 199.526 84.1864C202.447 84.473 203.598 81.8743 202.107 80.1596C201.257 79.4393 200.17 79.061 199.056 79.0982C198.741 79.0878 198.444 78.9448 198.24 78.7044C198.035 78.464 197.942 78.1485 197.982 77.8354C198.405 74.2672 198.196 70.6523 197.365 67.1564C196.022 60.5617 191.973 58.3858 187.577 58.3906C183.839 58.3947 178.479 61.1815 175.207 68.9872C171.949 76.7574 167.638 96.2016 163.686 102.429C162.955 103.507 162.168 104.545 161.328 105.54C162.627 107.026 164.316 108.119 166.204 108.694C169.394 109.64 171.027 108.136 171.027 108.136Z" fill="white"/>
<path fill-rule="evenodd" clip-rule="evenodd" d="M166.089 109.079C166.783 109.292 167.504 109.403 168.23 109.409C169.336 109.458 170.424 109.112 171.297 108.432L171.495 108.25L171.402 107.999C170.422 105.346 170.771 95.5633 175.598 93.5031C177.203 92.818 179.604 93.4826 182.144 94.1857L182.145 94.1859L182.164 94.1913C184.258 94.7717 186.421 95.3715 188.318 95.2383C193.452 94.8836 194.845 90.749 196.075 87.1008L196.075 87.1L196.089 87.0583C196.292 86.4572 196.49 85.8692 196.702 85.3148L196.756 85.1672C196.975 84.5539 197.146 84.2984 197.621 84.3508C197.965 84.3836 198.255 84.425 198.546 84.4672C198.841 84.5094 199.137 84.5515 199.486 84.5859C200.826 84.8297 202.175 84.2106 202.864 83.0359C203.383 81.9975 203.201 80.7462 202.408 79.8984C201.599 78.9672 199.922 78.7063 199.058 78.6992C198.868 78.6972 198.688 78.6138 198.564 78.4703C198.422 78.309 198.354 78.095 198.379 77.8813C198.807 74.2716 198.597 70.6147 197.756 67.0781C196.227 59.5703 191.387 57.9922 187.59 57.9922H187.575C183.794 57.9961 178.189 60.8375 174.837 68.8336C173.515 71.9867 172.032 77.0125 170.461 82.3336C168.218 89.9336 165.676 98.5469 163.347 102.216C162.627 103.276 161.852 104.298 161.027 105.278L160.807 105.529L161.014 105.79C162.361 107.344 164.121 108.484 166.089 109.079ZM166.317 108.312C164.617 107.785 163.08 106.829 161.856 105.537V105.537C162.509 104.751 163.591 103.325 164.023 102.645C166.412 98.8805 168.86 90.5836 171.228 82.5602L171.229 82.5593C172.793 77.2604 174.27 72.2553 175.575 69.143C178.775 61.5086 184.04 58.7961 187.576 58.7922H187.589C191.089 58.7922 195.551 60.2594 196.973 67.2375C197.794 70.6926 198.001 74.2654 197.584 77.7922C197.534 78.231 197.673 78.6702 197.966 79.0008C198.239 79.3154 198.635 79.4969 199.052 79.4992C200.051 79.4623 201.03 79.7909 201.804 80.4234C202.378 81.0256 202.517 81.9208 202.154 82.6687C201.609 83.5463 200.576 83.9931 199.564 83.7891C199.229 83.7563 198.944 83.7156 198.66 83.675C198.357 83.6313 198.055 83.5883 197.698 83.5539C196.874 83.5071 196.145 84.0847 196.003 84.8977L195.955 85.0289C195.739 85.5951 195.536 86.1967 195.328 86.8108L195.317 86.8445C194.111 90.4227 192.864 94.1219 188.262 94.4398C186.493 94.5586 184.393 93.9789 182.358 93.4156C179.679 92.6727 177.148 91.9719 175.284 92.7672C170.111 94.975 169.602 104.742 170.557 107.991C170.062 108.316 168.652 109.004 166.317 108.312Z" fill="black"/>
<path d="M201.292 463.622C201.085 465.208 199.731 466.394 198.132 466.39H192.78C191.92 466.389 191.097 466.042 190.497 465.426C189.898 464.809 189.572 463.977 189.596 463.118C191.036 402.974 175.58 339.214 156.204 287.83C155.707 343.038 141.972 447.438 137.955 461.982C137.363 463.726 136.811 466.598 133.892 466.582C131.714 466.562 129.542 466.369 127.396 466.006C124.492 465.542 125.004 461.766 125.236 460.102C130.636 411.142 123.404 368.286 119.58 317.27C118.34 300.694 111.668 282.382 111.668 282.382C105.204 265.318 101.372 253.246 101.02 236.758C109.14 244.686 137.436 246.862 149.668 246.686C157.996 246.566 180.788 248.158 192.164 241.974C202.972 287.862 204.284 313.422 205.876 366.526C206.644 392.07 204.948 434.734 201.292 463.622Z" fill="white"/>
<path d="M200.905 463.519C200.336 466.211 197.937 465.993 195.835 465.993C194.018 465.993 191.513 466.429 190.452 464.595C189.638 463.187 190.041 461.091 190.061 459.508C190.083 457.818 190.091 456.127 190.087 454.437C190.079 451.164 190.024 447.892 189.922 444.621C189.488 431.299 188.383 418.007 186.612 404.796C183.074 378.691 177.514 352.901 169.983 327.657C166.012 314.187 161.547 300.877 156.589 287.727C156.531 287.539 156.346 287.421 156.151 287.448C155.957 287.474 155.81 287.637 155.803 287.833C155.56 313.216 153.334 338.601 150.822 363.844C148.373 388.464 145.482 413.06 141.862 437.537C140.811 444.646 139.771 451.783 138.289 458.818C138.094 459.745 137.899 460.677 137.647 461.591C137.41 462.624 137.042 463.623 136.552 464.563C135.268 466.753 132.597 466.218 130.436 466.008C128.209 465.791 125.824 465.81 125.484 463.099C125.42 461.59 125.525 460.078 125.798 458.593C126.282 453.995 126.664 449.388 126.943 444.772C129.15 408.481 124.808 372.327 121.559 336.239C120.744 327.195 120.433 318.022 118.985 309.051C117.78 301.848 116.071 294.739 113.871 287.776C112.403 283.042 110.576 278.451 108.924 273.779C106.039 266.001 103.895 257.968 102.519 249.788C101.876 245.473 101.509 241.122 101.419 236.761L100.736 237.044C104.49 240.606 109.997 242.188 114.892 243.403C121.485 244.96 128.191 245.993 134.947 246.491C140.481 246.961 145.992 247.051 151.541 247.085C157.897 247.124 164.246 247.31 170.599 246.965C177.915 246.567 185.788 245.808 192.365 242.322L191.777 242.083C195.084 256.15 197.973 270.319 200.024 284.627C201.943 298.017 203.102 311.498 203.861 325C205.529 354.704 206.175 384.421 204.827 414.149C204.079 430.671 202.956 447.21 200.891 463.625C200.827 464.134 201.628 464.13 201.691 463.625C205.347 434.556 206.666 404.982 206.441 375.695C206.324 360.425 205.684 345.128 204.92 329.877C204.238 316.281 203.221 302.698 201.451 289.197C199.278 273.282 196.307 257.487 192.549 241.871C192.514 241.752 192.427 241.656 192.313 241.609C192.198 241.562 192.069 241.571 191.961 241.632C185.994 244.794 178.895 245.614 172.256 246.064C165.967 246.491 159.667 246.39 153.369 246.305C141.662 246.148 130.054 245.787 118.534 243.408C112.727 242.209 105.751 240.7 101.302 236.478C101.186 236.368 101.016 236.337 100.869 236.398C100.721 236.459 100.623 236.601 100.619 236.761C100.82 245.177 102.036 253.537 104.24 261.662C106.208 268.92 108.933 275.892 111.45 282.966C113.247 288.095 114.777 293.314 116.035 298.601C118.227 307.626 119.094 316.643 119.86 325.875C122.968 363.348 128.038 400.827 126.464 438.51C126.267 443.206 125.97 447.896 125.572 452.581C125.378 454.839 125.168 457.096 124.918 459.348C124.666 460.72 124.606 462.119 124.739 463.507C125.224 466.385 127.636 466.512 130.119 466.774C133.087 467.088 136.091 467.523 137.524 464.413C138.571 462.142 138.981 459.512 139.455 457.074C140.117 453.67 140.688 450.249 141.238 446.826C144.961 423.659 147.757 400.325 150.261 376.999C153.145 350.133 155.664 323.146 156.442 296.126C156.522 293.362 156.575 290.598 156.603 287.833L155.817 287.939C165.499 313.545 173.286 339.828 179.116 366.575C185.203 394.712 189.017 423.446 189.275 452.259C189.292 454.193 189.293 456.127 189.277 458.061C189.261 459.882 188.956 461.903 189.233 463.701C189.526 465.501 191.092 466.816 192.916 466.793C195.96 466.961 200.851 467.634 201.677 463.731C201.783 463.229 201.012 463.014 200.905 463.519Z" fill="black"/>
<path d="M199.965 466.235C199.71 468.67 201.191 471.676 202.579 473.693C203.795 475.429 205.577 476.687 207.619 477.252C209.821 477.832 212.088 478.128 214.365 478.135C216.168 478.14 218.052 478.041 219.661 478.854C220.828 479.428 221.72 480.442 222.14 481.672C222.603 482.982 222.087 484.817 220.706 484.968C219.451 485.106 217.655 485.188 216.864 485.188C208.964 485.438 203.755 485.226 196.869 485.052C196.487 485.084 196.106 484.984 195.789 484.769C195.373 484.408 195.414 483.766 195.438 483.215C195.528 482.413 195.325 481.604 194.867 480.939C194.367 480.275 193.432 480.124 192.747 480.595C191.666 481.544 192.552 484.404 191.2 484.895C190.981 484.974 188.538 484.919 187.026 484.858C186.43 484.833 185.944 484.369 185.892 483.775C185.605 480.664 185.86 476.748 187.252 474.044C187.945 472.7 188.983 471.563 189.739 470.253C190.579 469.061 191.014 467.63 190.979 466.172L199.965 466.235Z" fill="black"/>
<path d="M135.261 466.416C135.006 468.851 136.488 471.857 137.876 473.875C139.091 475.61 140.874 476.868 142.916 477.433C145.118 478.013 147.385 478.309 149.662 478.316C151.465 478.321 153.349 478.222 154.958 479.035C156.125 479.609 157.016 480.623 157.437 481.853C157.899 483.163 157.384 484.998 156.003 485.15C154.748 485.287 152.952 485.37 152.161 485.37C144.261 485.619 139.052 485.407 132.166 485.233C131.784 485.265 131.403 485.165 131.086 484.95C130.67 484.589 130.711 483.947 130.734 483.396C130.825 482.594 130.622 481.786 130.164 481.12C129.663 480.457 128.729 480.305 128.044 480.776C126.963 481.726 127.849 484.585 126.497 485.076C126.278 485.155 123.835 485.101 122.323 485.039C121.727 485.014 121.241 484.55 121.189 483.956C120.902 480.845 121.157 476.929 122.549 474.225C123.242 472.881 124.28 471.744 125.036 470.434C125.888 468.965 126.329 467.293 126.312 465.594L130.504 466.587L135.261 466.416Z" fill="black"/>
<circle cx="192.818" cy="75.1046" r="1.08121" fill="black"/>
<path d="M189.475 71.9858C189.819 71.2002 190.465 70.5861 191.266 70.2814C192.068 69.9767 192.959 70.0071 193.738 70.3658C194.454 70.6548 194.765 69.4946 194.057 69.2086C191.905 68.3163 189.431 69.2723 188.439 71.3801C188.104 72.0725 189.139 72.6817 189.475 71.9857V71.9858Z" fill="black"/>
<path d="M177.177 70.4006C176.803 69.6882 176.084 69.2223 175.281 69.1706C173.407 68.9823 172.024 70.6947 171.659 71.3416C171.032 72.5041 170.732 73.8153 170.793 75.1348C170.818 76.4362 171.476 77.6434 172.557 78.3687C173.65 79.0325 175.914 79.2526 176.82 77.9233L177.177 70.4006Z" fill="white"/>
<path d="M177.523 70.1974C176.71 68.637 174.688 68.4487 173.255 69.2299C171.614 70.2415 170.565 71.987 170.444 73.9113C170.221 75.841 170.797 77.9779 172.681 78.882C174.142 79.6601 175.941 79.3846 177.103 78.2048C177.436 77.8161 176.873 77.2477 176.537 77.6391C175.623 78.5679 174.205 78.7794 173.06 78.1575C171.308 77.3319 170.99 75.2704 171.297 73.5612C171.446 72.5932 171.845 71.6811 172.457 70.9162C173.463 69.7406 175.822 68.6606 176.832 70.6011C177.07 71.0579 177.761 70.6539 177.523 70.1974V70.1974Z" fill="black"/>
<path d="M175.71 71.5372C174.678 71.1876 173.536 71.5127 172.843 72.354C172.167 73.1663 171.958 74.2699 172.29 75.2733C172.461 75.7548 173.234 75.5473 173.061 75.0607C172.772 74.3387 172.915 73.5157 173.431 72.9336C173.946 72.3514 174.746 72.1096 175.497 72.3087C175.707 72.3587 175.919 72.2336 175.976 72.0256C176.034 71.8177 175.916 71.6018 175.71 71.5372V71.5372Z" fill="black"/>
<path d="M200.537 62.8642C199.303 63.1644 198.038 63.3174 196.769 63.3202C189.193 63.5442 182.009 64.0402 174.801 68.9442C172.645 66.4708 171.736 63.1492 172.331 59.9228C172.926 56.6965 174.961 53.9178 177.857 52.3762C177.643 52.1172 177.527 51.7917 177.529 51.4562C177.525 50.6455 178.171 49.981 178.981 49.9614C179.792 49.9418 180.469 50.5743 180.505 51.3842C185.293 50.3042 190.207 52.5966 192.457 56.9602C194.217 57.2562 195.977 57.5602 197.737 57.8562C198.571 57.9651 199.397 58.1309 200.209 58.3522C201.321 58.6882 202.417 59.2802 202.537 60.1922C202.705 61.5282 202.017 62.4082 200.537 62.8642Z" fill="black"/>
<path d="M189.785 87.4389C190.486 87.3722 191.178 87.6338 191.66 88.1473C191.99 88.4677 192.709 89.68 191.669 89.6511C191.256 89.6397 190.751 89.1957 190.421 88.9792C189.977 88.6883 188.652 87.8417 189.785 87.4389C190.267 87.2676 190.059 86.4944 189.573 86.6675C189.066 86.8082 188.686 87.2287 188.598 87.7469C188.509 88.2651 188.727 88.7879 189.158 89.089C189.872 89.6579 191.055 90.6253 192.037 90.4366C193.123 90.2278 193.186 88.9907 192.716 88.1837C192.062 87.0989 190.829 86.5038 189.573 86.6675C189.066 86.7564 189.281 87.5275 189.785 87.4389Z" fill="black"/>
<path d="M181.163 150.711C181.019 149.267 181.489 147.83 182.458 146.751C183.428 145.672 184.807 145.051 186.258 145.042C187.104 145.06 187.949 145.126 188.788 145.24C192.995 145.735 196.182 146.793 200.374 147.672C203.872 148.405 205.552 147.577 206.181 145.348C207.404 141.017 209.353 130.935 210.341 127.295C210.807 125.581 211.697 122.502 209.73 120.479C208.773 119.495 206.94 118.948 205.626 118.548C194.558 115.295 183.681 111.425 173.045 106.958C172.718 106.823 172.345 106.863 172.054 107.064C170.825 107.893 168.369 108.916 166.274 108.066C163.538 106.957 162.235 105.865 161.299 104.553C161.119 104.296 160.835 104.132 160.523 104.105C160.211 104.079 159.903 104.191 159.682 104.413C154.814 109.379 147.412 114.426 141.636 119.395C106.473 147.963 91.3703 195.637 99.027 233.652C102.116 244.13 135.967 246.887 149.668 246.691C159.292 246.554 188.22 248.697 196.549 238.488C205.146 228.343 203.824 214.42 199.987 200.464C195.504 184.158 182.731 167.548 181.163 150.711Z" fill="black"/>
<path d="M145.234 204.654C148.512 210.035 152.096 215.858 156.202 222.194C160.514 228.852 172.118 243.265 178.661 247.75C186.074 252.833 207.832 260.557 238.406 261.774C241.532 262.157 242.765 262.532 250.034 267.796C253.011 269.951 258.995 272.228 262.338 272.488L269.871 273.377C270.957 273.462 275.215 273.896 276.515 273.406C277.3 273.187 277.724 271.411 274.37 271.076C264.362 270.076 264.736 268.529 264.736 268.529C264.861 267.681 267.584 268.147 268.429 268.236C271.286 268.536 273.219 268.662 275.987 268.996C278.132 269.255 279.959 269.466 280.15 268.193C280.198 267.453 279.823 267.099 278.379 266.922C274.317 266.424 270.738 266.119 266.708 265.41C266.061 265.285 265.686 264.555 266.147 264.103C266.979 263.367 276.299 265.132 279.36 265.406C279.841 265.449 280.822 265.495 281.101 264.702C281.208 264.385 281.175 264.039 281.012 263.748C280.848 263.457 280.568 263.25 280.243 263.177C279.447 262.966 277.932 262.733 277.016 262.597C273.508 262.074 270.123 261.914 266.601 261.507C266.313 261.494 266.076 261.278 266.036 260.993C265.997 260.709 266.166 260.436 266.438 260.345C267.348 260.108 273.581 260.774 276.672 260.908C277.242 260.959 277.815 260.839 278.317 260.564C279.212 260.107 279.071 259.029 278.292 258.44C277.806 258.19 277.274 258.04 276.728 257.998C271.778 257.282 262.714 257.364 258.277 256.631C258.039 256.591 257.865 256.383 257.868 256.142C257.871 255.901 258.049 255.698 258.288 255.663C260.049 255.407 261.36 255.618 263.872 255.237C266.14 254.893 266.834 254.519 266.758 253.76C266.655 252.729 265.265 252.622 264.769 252.576C262.818 252.432 260.857 252.499 258.92 252.777C257.27 252.977 255.42 253.398 253.555 253.794C249.689 254.615 245.037 253.264 240.057 252.149C218.651 246.797 199.181 237.873 192.893 233.217C185.416 227.681 180.547 219.377 176.208 211.147C172.99 205.045 170.066 199.215 167.364 193.43L145.234 204.654Z" fill="white"/>
<path fill-rule="evenodd" clip-rule="evenodd" d="M270.282 273.81C271.691 273.93 273.162 274.035 274.375 274.035C275.132 274.072 275.89 273.989 276.621 273.788C277.166 273.617 277.517 273.088 277.462 272.52C277.421 272.053 277.043 270.937 274.41 270.675C266.656 269.9 265.366 268.82 265.164 268.56C265.324 268.44 265.921 268.323 267.985 268.582C268.143 268.602 268.28 268.619 268.387 268.63C269.551 268.753 270.561 268.847 271.537 268.937L271.581 268.941C272.987 269.071 274.319 269.195 275.939 269.39L275.939 269.39C278.179 269.661 280.295 269.917 280.549 268.216C280.627 267.036 279.757 266.685 278.427 266.522C277.385 266.394 276.374 266.279 275.38 266.166L275.089 266.134C272.298 265.819 269.661 265.521 266.783 265.014C266.588 264.98 266.425 264.845 266.357 264.659C266.324 264.574 266.34 264.479 266.398 264.41C267.023 264.043 271.987 264.775 274.992 265.218L275.042 265.226C276.82 265.488 278.356 265.715 279.325 265.801C280.495 265.907 281.215 265.579 281.479 264.831C281.621 264.421 281.585 263.97 281.381 263.587C281.164 263.186 280.788 262.896 280.345 262.787C279.743 262.628 278.673 262.435 277.075 262.198C274.973 261.885 272.881 261.699 270.856 261.518L270.827 261.516L270.799 261.513C269.445 261.393 268.046 261.268 266.654 261.108C266.535 261.107 266.437 261.015 266.429 260.896C266.417 260.82 266.465 260.748 266.539 260.729C268.48 260.703 270.419 260.797 272.348 261.009C273.9 261.13 275.504 261.255 276.654 261.305C277.294 261.356 277.934 261.221 278.499 260.918C278.965 260.701 279.281 260.252 279.328 259.739C279.356 259.099 279.057 258.489 278.534 258.119C277.997 257.817 277.399 257.639 276.785 257.599C274.341 257.246 270.883 257.084 267.539 256.928L267.511 256.927C264.1 256.767 260.576 256.602 258.342 256.233C258.32 256.232 258.299 256.222 258.285 256.205C258.271 256.188 258.265 256.166 258.268 256.144C258.265 256.122 258.272 256.1 258.287 256.083C258.302 256.066 258.323 256.056 258.346 256.056C259.077 255.961 259.813 255.909 260.55 255.901C261.683 255.885 262.812 255.794 263.932 255.629C265.773 255.351 267.286 255.015 267.156 253.716C267.022 252.376 265.375 252.226 264.805 252.175C262.826 252.028 260.836 252.095 258.872 252.377C257.426 252.552 255.87 252.886 254.224 253.239L254.222 253.239L253.472 253.399C250.221 254.09 246.311 253.182 242.172 252.221L242.154 252.217C241.49 252.062 240.82 251.907 240.154 251.758C217.962 246.209 198.976 237.22 193.131 232.893C185.557 227.284 180.607 218.629 176.562 210.957C173.218 204.616 170.328 198.827 167.727 193.257L167.552 192.883L144.668 204.49L144.893 204.859C148.123 210.164 151.689 215.962 155.866 222.409C160.056 228.876 171.807 243.534 178.434 248.077C182.732 251.023 190.499 254.128 199.745 256.595C212.377 259.844 225.323 261.713 238.358 262.168C241.373 262.537 242.564 262.877 249.8 268.117C252.817 270.302 258.895 272.619 262.291 272.882L269.839 273.773L270.282 273.81ZM156.537 221.974C152.463 215.684 148.969 210.011 145.801 204.812L167.177 193.97C169.738 199.437 172.579 205.12 175.854 211.33C179.941 219.08 184.946 227.827 192.656 233.535C198.551 237.902 217.663 246.959 239.969 252.537C240.572 252.672 241.171 252.81 241.763 252.948L241.972 252.996L241.983 252.999C246.215 253.981 250.213 254.91 253.638 254.182L254.389 254.021C256.018 253.672 257.557 253.342 258.968 253.17C260.887 252.897 262.829 252.831 264.761 252.974C265.474 253.039 266.3 253.191 266.361 253.796C266.392 254.109 266.223 254.473 263.812 254.838C262.724 254.999 261.626 255.087 260.526 255.102C259.758 255.11 258.992 255.164 258.23 255.264C257.796 255.327 257.473 255.697 257.468 256.135C257.464 256.573 257.779 256.95 258.211 257.022C261.294 257.412 264.395 257.648 267.501 257.727L267.528 257.729C270.845 257.884 274.272 258.044 276.69 258.394C277.162 258.433 277.622 258.556 278.051 258.756C278.352 258.962 278.532 259.304 278.531 259.669C278.507 259.907 278.355 260.112 278.135 260.205C277.695 260.451 277.19 260.555 276.689 260.506C275.553 260.456 273.955 260.332 272.411 260.212C269.029 259.949 266.935 259.8 266.338 259.955C265.894 260.07 265.596 260.487 265.631 260.945C265.66 261.448 266.053 261.854 266.554 261.902C267.973 262.066 269.388 262.191 270.757 262.313C272.779 262.492 274.868 262.678 276.957 262.989L276.981 262.993C277.581 263.082 279.3 263.338 280.14 263.561C280.368 263.612 280.562 263.758 280.674 263.962C280.773 264.148 280.791 264.366 280.724 264.566C280.593 264.935 280.17 265.077 279.396 265.005C278.45 264.92 276.851 264.684 275.158 264.434C269.12 263.544 266.493 263.257 265.866 263.815C265.578 264.092 265.471 264.508 265.59 264.89C265.746 265.363 266.148 265.713 266.638 265.801C269.529 266.31 272.162 266.608 274.946 266.923L275 266.929L275.107 266.941C276.158 267.06 277.226 267.18 278.33 267.316C279.793 267.495 279.773 267.819 279.754 268.129L279.754 268.131C279.629 268.967 278.201 268.858 276.034 268.596C274.402 268.399 273.064 268.275 271.651 268.144L271.611 268.141L271.448 268.126C270.526 268.04 269.566 267.95 268.471 267.835L268.086 267.788L268.081 267.788C266.657 267.609 264.506 267.339 264.347 268.433C264.312 268.633 264.365 268.839 264.494 268.997C265.239 270.047 268.64 270.902 274.33 271.47C275.996 271.638 276.629 272.177 276.664 272.589C276.685 272.786 276.563 272.971 276.373 273.029C275.297 273.434 271.703 273.128 270.35 273.013L262.369 272.087C259.072 271.83 253.192 269.586 250.268 267.469C242.873 262.113 241.629 261.763 238.422 261.371C207.902 260.156 186.097 252.361 178.887 247.418C172.341 242.93 160.697 228.394 156.537 221.974Z" fill="black"/>
<path d="M128.01 185.284C131.651 191.26 135.114 197.397 138.956 203.244C140.132 205.034 141.594 206.201 143.837 205.899C146.56 205.532 149.284 203.81 151.716 202.629C154.638 201.211 157.523 199.723 160.373 198.163C162.711 196.884 165.699 195.68 167.52 193.666C169.289 191.709 168.547 189.484 167.763 187.246C166.598 183.92 165.426 180.596 164.249 177.274L156.311 154.743C156.141 154.26 155.368 154.468 155.54 154.955L163.088 176.378C164.389 180.072 165.7 183.762 166.992 187.459C167.781 189.717 168.417 191.906 166.352 193.683C164.97 194.723 163.491 195.627 161.935 196.382C158.887 198.095 155.794 199.728 152.658 201.279C150.979 202.11 149.289 202.917 147.586 203.699C145.471 204.672 142.808 206.099 140.722 204.225C139.413 203.048 138.584 201.104 137.686 199.631L134.827 194.938L128.701 184.881C128.433 184.442 127.741 184.843 128.01 185.285L128.01 185.284Z" fill="white"/>
<path d="M152.848 257.484C156.098 268.633 156.201 287.836 156.201 287.836C156.201 287.836 162.882 285.05 161.053 266.545" stroke="black" stroke-linecap="round" stroke-dasharray="6"/>
<path d="M105.416 245.594C121.412 251.35 138.341 254.077 155.336 253.633C181.733 252.849 183.41 250.57 183.41 250.57" stroke="black" stroke-linecap="round" stroke-dasharray="6"/>
<path fill-rule="evenodd" clip-rule="evenodd" d="M129.834 461.654C129.853 461.657 129.871 461.658 129.89 461.658H129.89C130.1 461.658 130.274 461.495 130.288 461.285C130.303 461.076 130.153 460.891 129.945 460.862C128.389 460.667 126.862 460.288 125.395 459.735C125.192 459.649 124.958 459.744 124.872 459.947C124.786 460.149 124.879 460.383 125.082 460.47C126.612 461.056 128.208 461.454 129.834 461.654ZM132.262 461.876C132.636 461.893 133.022 461.902 133.419 461.902C134.659 461.902 135.897 461.813 137.123 461.637C137.265 461.617 137.385 461.522 137.438 461.389C137.491 461.257 137.469 461.106 137.381 460.993C137.293 460.881 137.151 460.824 137.009 460.845C135.449 461.066 133.872 461.144 132.297 461.078C132.077 461.071 131.892 461.24 131.88 461.459C131.875 461.565 131.912 461.668 131.984 461.747C132.056 461.825 132.156 461.871 132.262 461.876Z" fill="black"/>
<path fill-rule="evenodd" clip-rule="evenodd" d="M194.082 461.749C194.094 461.749 194.106 461.75 194.117 461.75V461.75C194.331 461.75 194.506 461.581 194.516 461.367C194.525 461.154 194.364 460.971 194.151 460.952C192.588 460.838 191.043 460.539 189.549 460.063C189.342 459.988 189.112 460.094 189.036 460.302C188.96 460.509 189.067 460.739 189.275 460.815C190.834 461.319 192.448 461.633 194.082 461.749ZM196.113 461.445C196.114 461.666 196.294 461.844 196.514 461.843H196.518C198.144 461.83 199.765 461.665 201.361 461.349C201.577 461.307 201.718 461.096 201.675 460.88C201.632 460.663 201.422 460.522 201.205 460.565C199.659 460.87 198.088 461.03 196.511 461.043C196.29 461.044 196.112 461.224 196.113 461.445Z" fill="black"/>
<path d="M351.338 453.35C349.386 459.958 345.218 471.71 343.258 478.318C343.138 478.734 342.994 479.238 342.826 479.782C342.466 481.224 341.883 482.6 341.098 483.862C340.331 484.766 339.189 485.266 338.004 485.216C336.819 485.166 335.723 484.572 335.034 483.606C334.098 482.118 334.61 479.198 334.986 477.51C335.09 477.03 335.178 476.646 335.226 476.43C337.386 466.63 340.282 453.214 342.442 443.414L351.338 453.35Z" fill="white"/>
<path fill-rule="evenodd" clip-rule="evenodd" d="M337.97 485.613C338.055 485.618 338.137 485.62 338.221 485.62C339.461 485.635 340.638 485.077 341.412 484.108C342.243 482.815 342.85 481.392 343.208 479.897C343.375 479.355 343.519 478.854 343.641 478.429C344.612 475.158 346.152 470.538 347.643 466.07L347.651 466.045C349.169 461.495 350.738 456.792 351.722 453.46L351.785 453.246L342.22 442.562L342.052 443.325C340.971 448.225 339.707 454.03 338.443 459.834L338.393 460.065C337.145 465.791 335.9 471.506 334.835 476.341L334.595 477.42C333.905 480.52 333.938 482.612 334.695 483.816C335.439 484.901 336.655 485.568 337.97 485.613ZM339.445 458.992C340.57 453.827 341.686 448.703 342.665 444.259L350.891 453.448C349.905 456.758 348.37 461.362 346.884 465.816C345.391 470.291 343.848 474.918 342.87 478.216L342.864 478.234C342.748 478.642 342.607 479.133 342.443 479.663C342.081 481.051 341.523 482.38 340.786 483.61C340.12 484.447 339.082 484.898 338.016 484.814C336.96 484.778 335.983 484.251 335.373 483.39C334.742 482.387 334.744 480.437 335.377 477.591L335.616 476.513C336.697 471.613 337.961 465.809 339.225 460.005L339.225 460.004C339.298 459.667 339.372 459.329 339.445 458.992Z" fill="black"/>
<path d="M370.522 461.744C368.394 468.336 366.666 475.312 365.106 480.568C364.946 481.104 364.714 481.952 364.418 482.904C363.882 484.664 363.122 486.768 362.226 487.816C360.698 489.616 357.29 488.688 356.346 487.024C355.498 485.544 355.746 483.312 355.978 481.992C356.042 481.672 356.098 481.408 356.138 481.224C357.554 474.808 359.17 467.088 360.89 459L370.522 461.744Z" fill="white"/>
<path fill-rule="evenodd" clip-rule="evenodd" d="M359.44 489.177C359.593 489.191 359.744 489.199 359.893 489.199C360.895 489.239 361.862 488.828 362.529 488.079C363.294 487.184 364.036 485.53 364.8 483.025C364.991 482.407 365.157 481.834 365.294 481.359L365.301 481.333L365.49 480.684C366.078 478.702 366.69 476.477 367.337 474.122C368.387 470.302 369.578 465.971 370.902 461.869L371.029 461.475L360.587 458.5L359.232 464.89C357.986 470.771 356.809 476.327 355.747 481.141C355.707 481.327 355.65 481.593 355.584 481.925C355.175 484.248 355.315 486.031 355.998 487.224C356.783 488.37 358.053 489.091 359.44 489.177ZM360.014 465.055L361.192 459.505L370.014 462.017C368.741 466.002 367.594 470.171 366.577 473.867L366.565 473.91C365.919 476.261 365.308 478.482 364.722 480.455L364.532 481.112C364.396 481.587 364.229 482.165 364.035 482.79C363.623 484.494 362.907 486.11 361.921 487.56C361.298 488.206 360.402 488.512 359.514 488.38C358.388 488.315 357.351 487.744 356.693 486.828C356.113 485.815 356.002 484.167 356.37 482.073C356.433 481.755 356.489 481.494 356.529 481.312C357.591 476.495 358.768 470.938 360.014 465.055Z" fill="black"/>
<path d="M420.371 458.788C421.875 465.556 423.915 474.545 424.987 479.937C425.067 480.353 425.163 480.849 425.291 481.385C425.543 482.921 426.157 484.374 427.083 485.625C428.496 487.157 430.878 487.268 432.427 485.873C433.747 484.401 433.291 481.097 433.163 480.113C433.139 479.929 433.115 479.745 433.091 479.553C432.187 472.233 431.107 462.737 430.067 453.953L420.371 458.788Z" fill="white"/>
<path fill-rule="evenodd" clip-rule="evenodd" d="M429.9 487.252H429.907C430.957 487.28 431.974 486.879 432.724 486.142C434.146 484.557 433.709 481.212 433.559 480.064L433.487 479.506C432.906 474.799 432.263 469.288 431.582 463.452C431.211 460.267 430.835 457.043 430.464 453.909L430.397 453.344L419.912 458.571L420.91 463.045C422.232 468.967 423.732 475.68 424.599 480.042L424.599 480.043C424.679 480.458 424.775 480.95 424.9 481.474C425.15 483.082 425.798 484.601 426.785 485.894C427.58 486.773 428.715 487.267 429.9 487.252ZM421.69 462.869L420.829 459.008L429.736 454.567C430.066 457.354 430.398 460.206 430.728 463.032L430.788 463.544C431.468 469.381 432.111 474.894 432.693 479.605L432.772 480.216C433.125 482.923 432.909 484.737 432.129 485.606C431.533 486.177 430.731 486.482 429.907 486.452H429.901C428.942 486.466 428.024 486.068 427.379 485.359C426.487 484.164 425.903 482.768 425.679 481.294C425.56 480.796 425.47 480.332 425.388 479.911L425.379 479.861C424.514 475.515 423.014 468.797 421.69 462.869Z" fill="black"/>
<path d="M399.17 463.646C400.442 469.718 401.61 474.118 402.562 478.918C402.73 479.758 403.098 481.63 403.594 483.454C403.903 484.834 404.415 486.161 405.114 487.39C406.466 489.326 408.57 489.022 409.93 488.174C411.466 487.222 411.466 484.798 411.282 483.126C411.218 482.462 411.122 481.926 411.09 481.638C410.378 475.894 409.642 469.558 408.81 462.406L399.17 463.646Z" fill="white"/>
<path fill-rule="evenodd" clip-rule="evenodd" d="M404.786 487.623C405.437 488.631 406.556 489.239 407.756 489.237C408.602 489.222 409.427 488.973 410.14 488.517C411.468 487.695 411.986 485.867 411.68 483.091C411.638 482.656 411.582 482.275 411.539 481.98C411.517 481.826 411.498 481.696 411.486 481.592C410.793 475.993 410.087 469.924 409.269 462.895L409.268 462.888L409.161 461.961L398.689 463.309L398.779 463.732C399.388 466.641 399.964 469.13 400.522 471.535C401.114 474.09 401.674 476.503 402.169 479L402.189 479.1C402.364 479.975 402.727 481.794 403.207 483.562C403.517 484.99 404.05 486.36 404.786 487.623ZM401.302 471.355C400.772 469.071 400.225 466.713 399.65 463.991L408.459 462.858L408.474 462.981L408.486 463.088C409.299 470.075 410.002 476.115 410.692 481.686C410.703 481.789 410.723 481.923 410.746 482.084L410.748 482.095C410.789 482.38 410.843 482.748 410.884 483.173C411.07 484.857 411.018 487.033 409.718 487.838C408.494 488.601 406.641 488.882 405.439 487.162C404.763 485.974 404.271 484.689 403.979 483.353C403.507 481.611 403.146 479.809 402.974 478.944L402.954 478.844C402.456 476.334 401.896 473.916 401.302 471.355Z" fill="black"/>
<path d="M352.157 124.86C352.868 122.388 355.403 119.739 357.308 118.012C358.117 118.582 359.199 118.577 360.003 117.999C360.68 117.335 360.944 116.357 360.693 115.443C360.401 114.512 359.745 113.739 358.875 113.298C357.969 112.793 356.855 112.846 356.002 113.436C354.813 114.31 354.907 115.657 355.908 116.703C353.779 119.554 349.993 120.865 346.441 120.669L349.633 123.697L352.157 124.86Z" fill="white"/>
<path fill-rule="evenodd" clip-rule="evenodd" d="M351.989 125.223C352.042 125.247 352.099 125.26 352.157 125.26L352.157 125.26C352.335 125.26 352.492 125.142 352.541 124.971C353.19 122.713 355.475 120.242 357.362 118.503C358.288 119.024 359.435 118.941 360.275 118.292C361.063 117.528 361.371 116.396 361.079 115.339C360.756 114.299 360.026 113.435 359.056 112.942C358.015 112.37 356.741 112.436 355.765 113.113C355.19 113.501 354.815 114.124 354.742 114.814C354.704 115.509 354.937 116.191 355.39 116.718C353.445 119.114 350.05 120.458 346.463 120.269C346.295 120.258 346.139 120.354 346.074 120.51C346.007 120.664 346.044 120.843 346.166 120.958L349.357 123.986C349.389 124.017 349.425 124.042 349.465 124.06L351.989 125.223ZM351.916 124.308L349.86 123.36L347.46 121.085C350.86 121.104 354.085 119.581 356.228 116.942C356.346 116.786 356.332 116.568 356.197 116.427C355.767 116.031 355.527 115.469 355.539 114.884C355.596 114.424 355.852 114.012 356.239 113.757C356.969 113.255 357.923 113.215 358.693 113.654C359.464 114.042 360.046 114.724 360.307 115.546C360.517 116.317 360.297 117.142 359.73 117.706C359.061 118.154 358.184 118.142 357.527 117.677C357.374 117.577 357.174 117.593 357.039 117.715C355.153 119.425 352.791 121.915 351.916 124.308Z" fill="black"/>
<path d="M362.898 122.749C360.661 124.008 358.609 125.569 356.8 127.389C355.466 129.02 355.123 131.247 355.903 133.204C356.428 135.125 358.093 136.516 360.077 136.69C362.032 136.738 363.972 136.342 365.751 135.532C371.327 133.204 374.035 135.442 374.764 138.261C375.657 141.715 373.855 144.811 370.89 145.297C367.443 145.862 366.423 144.278 362.898 142.597C360.098 141.263 356.424 141.424 355.887 144.193C352.265 170.602 356.436 269.198 356.66 294.325C356.744 303.717 356.849 313.261 359.574 322.249C363.045 333.699 370.242 342.981 378.508 351.706C391.709 365.01 416.548 375.209 428.567 389.59C436.925 399.591 440.182 406.801 441.81 419.595C444.139 437.895 437.623 454.02 417.039 460.375C400.163 465.586 384.583 463.868 369.464 461.464C358.825 459.772 350.563 453.865 343.883 445.414C334.506 433.551 334.178 412.829 335.592 401.509C338.04 381.896 339.267 368.923 341.716 349.31C344.688 330.415 344.483 311.18 344.192 292.055C343.844 269.118 346.719 174.264 343.463 149.61C342.561 144.091 341.653 143.477 335.537 140.965C334.456 140.471 333.869 139.286 334.131 138.126C334.269 137.628 334.473 135.693 332.524 135.53C332.029 135.497 331.54 135.659 331.161 135.979C330.786 136.406 330.549 136.936 330.48 137.5C330.271 138.543 327.646 136.06 326.874 135.343C323.126 131.859 320.428 127.111 322.285 122.072C323.013 120.161 324.297 118.513 325.97 117.339C330.465 114.129 336.244 114.512 340.999 116.685C344.106 118.15 346.88 120.235 349.151 122.811C350.881 124.675 353.631 125.176 355.907 124.042C357.755 123.154 359.478 122.026 361.031 120.687C360.923 120.454 360.846 120.208 360.803 119.955C360.716 119.091 361.108 118.248 361.826 117.758C363.014 116.837 364.71 116.98 365.729 118.086C366.339 118.592 366.709 119.331 366.75 120.123C366.791 120.915 366.499 121.687 365.945 122.255C365.066 122.894 363.934 123.078 362.898 122.749Z" fill="white"/>
<path fill-rule="evenodd" clip-rule="evenodd" d="M369.401 461.856C377.368 463.268 385.435 464.044 393.525 464.178C401.53 464.238 409.498 463.084 417.157 460.754C435.954 454.95 444.85 440.314 442.207 419.541C440.586 406.808 437.346 399.468 428.875 389.331C422.344 381.517 411.976 374.881 401.949 368.464L401.938 368.457C393.526 363.073 384.83 357.507 378.798 351.428C371.555 343.782 363.653 334.323 359.957 322.13C357.227 313.124 357.142 303.564 357.06 294.318C357.004 288.094 356.713 277.616 356.345 264.351L356.344 264.304L356.344 264.287C355.237 224.374 353.564 164.072 356.28 144.265C356.406 143.528 356.882 142.899 357.557 142.577C358.829 141.938 360.906 142.088 362.726 142.955C363.679 143.409 364.453 143.861 365.136 144.26L365.155 144.271C366.993 145.346 368.324 146.123 370.954 145.689C372.385 145.456 373.649 144.625 374.429 143.404C375.392 141.833 375.654 139.931 375.151 138.158C374.815 136.678 373.846 135.421 372.5 134.719C370.728 133.837 368.404 133.985 365.597 135.16C363.877 135.946 362 136.332 360.109 136.289C358.285 136.127 356.756 134.843 356.282 133.075C355.547 131.257 355.856 129.183 357.091 127.66C358.834 125.912 360.801 124.404 362.94 123.175C364.074 123.486 365.288 123.251 366.223 122.539C366.814 121.971 367.149 121.188 367.153 120.369C367.143 119.392 366.73 118.462 366.011 117.8C364.855 116.543 362.928 116.385 361.583 117.436C360.75 118.013 360.299 119 360.407 120.008C360.437 120.199 360.486 120.387 360.553 120.568C359.081 121.801 357.461 122.846 355.732 123.679C353.615 124.726 351.062 124.263 349.447 122.539C347.139 119.924 344.321 117.807 341.166 116.318C335.646 113.795 329.877 114.053 325.737 117.01C323.995 118.227 322.661 119.942 321.91 121.93C319.679 127.984 323.892 133.114 326.601 135.632L326.679 135.705C328.782 137.661 329.793 138.313 330.418 138.114C330.659 138.036 330.834 137.829 330.871 137.578C330.924 137.1 331.116 136.648 331.424 136.278C331.722 136.03 332.103 135.904 332.491 135.925C332.907 135.925 333.299 136.118 333.552 136.448C333.819 136.94 333.886 137.517 333.736 138.057C333.437 139.402 334.126 140.772 335.385 141.332C341.393 143.8 342.193 144.321 343.067 149.66C345.338 166.855 344.623 218.145 344.1 255.609L344.1 255.635C343.878 271.47 343.688 285.144 343.792 292.058C344.062 309.784 344.367 329.875 341.319 349.258C340.097 359.041 339.164 367.31 338.262 375.302L338.253 375.382C337.351 383.385 336.418 391.66 335.195 401.456C333.523 414.845 334.714 434.455 343.569 445.658C350.922 454.962 359.372 460.26 369.401 461.856ZM332.558 135.128C332.503 135.123 332.447 135.121 332.391 135.121V135.121C331.844 135.125 331.316 135.321 330.899 135.674C330.464 136.131 330.185 136.714 330.104 137.34C329.85 137.282 329.144 136.907 327.225 135.119L327.146 135.046C324.582 132.663 320.59 127.826 322.661 122.207C323.357 120.37 324.591 118.786 326.203 117.662C330.104 114.873 335.575 114.643 340.833 117.046C343.89 118.489 346.62 120.541 348.855 123.077C350.709 125.063 353.645 125.6 356.082 124.4C357.962 123.495 359.715 122.346 361.296 120.983L361.514 120.789L361.397 120.522C361.304 120.323 361.238 120.112 361.2 119.896C361.134 119.175 361.467 118.477 362.068 118.074C363.098 117.276 364.567 117.403 365.446 118.365C366.008 118.88 366.335 119.601 366.353 120.363C366.35 120.967 366.103 121.545 365.667 121.964C364.893 122.496 363.918 122.644 363.021 122.365L362.864 122.314L362.718 122.389C360.438 123.666 358.348 125.255 356.508 127.111C355.07 128.849 354.692 131.233 355.524 133.33C356.094 135.406 357.899 136.906 360.045 137.086C362.063 137.141 364.068 136.734 365.905 135.897C368.456 134.834 370.612 134.673 372.145 135.436C373.282 136.034 374.099 137.103 374.376 138.358C374.823 139.913 374.599 141.585 373.759 142.968C373.1 143.999 372.033 144.702 370.825 144.9C368.476 145.284 367.378 144.643 365.56 143.581L365.558 143.58L365.553 143.577C364.854 143.169 364.06 142.705 363.07 142.233C361.007 141.25 358.701 141.103 357.196 141.863C356.295 142.301 355.66 143.147 355.491 144.135C352.762 164.032 354.436 224.388 355.545 264.327L355.552 264.581C355.917 277.744 356.205 288.141 356.26 294.326C356.343 303.628 356.428 313.246 359.192 322.362C362.935 334.714 370.91 344.265 378.224 351.985C384.328 358.135 393.066 363.728 401.518 369.137L401.524 369.141C411.498 375.525 421.811 382.126 428.26 389.843C436.619 399.844 439.815 407.085 441.413 419.643C444.002 439.985 435.304 454.314 416.921 459.99C399.934 465.235 384.192 463.397 369.526 461.065C359.705 459.503 351.42 454.301 344.197 445.162C338.758 438.282 333.345 422.732 335.989 401.554C337.21 391.772 338.142 383.506 339.044 375.514L339.049 375.471C339.953 367.457 340.888 359.168 342.111 349.37C345.168 329.936 344.862 309.813 344.593 292.058L344.593 292.046C344.488 285.144 344.678 271.475 344.9 255.646L344.9 255.62C345.423 218.132 346.138 166.808 343.858 149.542C342.938 143.916 341.974 143.174 335.689 140.592C334.79 140.18 334.301 139.196 334.516 138.23C334.72 137.473 334.609 136.665 334.209 135.991C333.822 135.463 333.212 135.144 332.558 135.128Z" fill="black"/>
<path d="M321.683 126.219C324.347 127.606 327.618 126.945 329.534 124.631C331.582 122.043 331.287 118.312 328.857 116.078C328.857 116.078 325.524 117.152 323.917 119.247C322.432 121.265 321.647 123.713 321.683 126.219Z" fill="black"/>
<path d="M327.533 119.621C327.219 119.69 326.932 119.847 326.704 120.073C326.331 120.43 326.898 120.996 327.269 120.639C327.4 120.511 327.566 120.425 327.745 120.392C328.247 120.279 328.035 119.508 327.533 119.621H327.533Z" fill="white"/>
<ellipse cx="342.875" cy="125.055" rx="1.26567" ry="1.26568" fill="black"/>
<path d="M431.712 393.574C445.945 394.236 458.314 403.562 462.867 417.064C463.024 417.552 463.797 417.343 463.638 416.851C458.982 403.008 446.302 393.445 431.712 392.774C431.197 392.756 431.198 393.556 431.712 393.574Z" fill="black"/>
<path d="M463.072 416.438C461.344 420.463 462.004 425.116 464.784 428.501C466.012 429.953 468.406 431.045 469.67 429.625C470.384 428.824 470.321 427.61 470.125 426.556C469.281 421.999 466.765 419.239 463.072 416.438" fill="black"/>
<path d="M354.589 170.882C356.149 170.436 357.819 171.022 358.76 172.343C359.56 173.625 359.291 175.301 358.13 176.268C357.046 176.944 355.716 177.093 354.51 176.674" fill="black"/>
<path d="M354.51 182.445C356.861 181.447 359.028 183.365 358.658 185.246C358.288 187.127 356.265 187.461 354.51 186.846" fill="black"/>
<path d="M354.647 192.841C356.776 192.24 359.539 193.766 359.539 196.416C359.539 198.879 357.187 200.033 354.541 199.67" fill="black"/>
<path d="M354.738 203.863C357.638 203.4 360.101 205.146 359.83 208.086C359.613 210.436 357.482 211.433 354.941 211.142" fill="black"/>
<path d="M354.953 215.144C358.48 214.278 361.473 217.988 359.098 220.693C358.09 221.543 356.046 221.748 354.953 221.695" fill="black"/>
<path d="M355.096 226.282C356.644 226.021 358.235 226.227 359.665 226.874C360.86 227.681 361.499 229.092 361.318 230.522C361.045 232.861 357.077 233.707 355.096 233.14" fill="black"/>
<path d="M355.537 238.112C356.755 237.998 359.166 237.799 360.466 238.964C361.963 240.244 362.246 242.451 361.12 244.068C360.012 245.498 357.329 246.199 355.537 245.778" fill="black"/>
<path d="M355.879 249.849C357.287 249.577 358.744 249.733 360.063 250.297C361.812 251.282 361.812 252.817 361.095 254.24C360.396 255.625 357.424 256.04 355.879 255.897" fill="black"/>
<path d="M355.879 261.14C357.151 261.14 359.164 260.813 360.556 261.767C362.009 262.902 362.375 264.949 361.404 266.517C360.377 268.04 357.823 268.133 356.408 268.012" fill="black"/>
<path d="M356.162 272.165C359.481 271.535 361.676 272.431 361.675 275.692C361.675 278.077 358.003 278.032 356.409 277.944" fill="black"/>
<path d="M371.721 385.487C370.347 385.015 369.555 382.394 369.122 381.216C368.533 379.613 367.951 378.014 368.694 376.346C369.762 374.184 371.05 372.138 372.538 370.241C374.95 366.942 376.46 370.94 377.242 372.857C377.921 374.513 378.485 376.213 378.93 377.947C379.196 378.993 379.942 381.071 379.337 382.103C378.786 383.044 376.88 383.701 375.951 384.131C374.736 384.695 373.017 385.628 371.614 385.473C371.103 385.417 371.107 386.217 371.614 386.273C372.856 386.41 374.224 385.741 375.335 385.274C376.855 384.748 378.28 383.979 379.555 382.998C381.358 381.357 379.631 377.281 379.027 375.424C378.425 373.575 376.919 367.543 374.267 367.764C372.388 367.92 370.86 371.218 370.019 372.539C368.944 374.228 367.396 376.17 367.505 378.292C367.706 379.852 368.173 381.366 368.886 382.767C369.418 383.989 370.127 385.784 371.508 386.259C371.996 386.426 372.206 385.654 371.721 385.487Z" fill="black"/>
<path d="M391.276 381.678C390.705 384.517 389.587 387.728 389.636 390.634C389.666 392.388 390.786 393.688 392.201 394.629C396.141 397.249 399.432 394.124 400.355 390.201C400.993 387.489 402.377 383.235 399.194 381.701C397.467 380.949 395.63 380.477 393.755 380.305C392.505 380.169 391.734 380.448 391.276 381.678C391.096 382.161 391.869 382.369 392.047 381.89C392.715 380.097 397.471 381.815 398.67 382.348C401.393 383.559 400.161 387.452 399.642 389.735C399.234 391.535 398.602 393.527 396.827 394.435C394.911 395.415 392.805 394.417 391.457 392.976C389.882 391.291 390.599 389.198 391.001 387.161C391.347 385.403 391.696 383.647 392.047 381.89C392.148 381.388 391.377 381.173 391.276 381.678Z" fill="black"/>
<path d="M347.899 407.079C349.28 409.605 350.499 412.818 352.41 414.981C353.572 416.297 355.271 416.556 356.958 416.357C361.354 415.838 362.182 411.672 360.521 408.145C359.417 405.801 357.566 401.236 354.291 401.873C352.593 402.341 350.977 403.071 349.503 404.036C348.242 404.759 347.375 405.427 347.859 406.983C348.011 407.473 348.784 407.264 348.63 406.771C348.03 404.843 353.159 402.859 354.504 402.644C356.986 402.249 358.555 406.055 359.488 407.867C360.246 409.338 360.953 411.007 360.523 412.702C359.97 414.879 357.8 415.692 355.778 415.614C353.465 415.524 352.563 413.894 351.55 412.056C350.561 410.263 349.575 408.47 348.59 406.675C348.343 406.223 347.652 406.626 347.899 407.079Z" fill="black"/>
<path d="M423.81 391.696C421.232 390.389 418.432 388.442 415.623 387.722C413.969 387.391 412.26 387.92 411.084 389.128C407.654 392.118 409.48 396.1 412.947 398.043C415.409 399.422 419.305 402.024 421.675 399.318C422.861 397.854 423.807 396.211 424.476 394.451C424.941 393.281 424.872 392.466 423.81 391.696C423.393 391.394 422.993 392.087 423.407 392.387C424.94 393.5 422.008 397.672 421.187 398.647C419.246 400.951 415.659 398.618 413.579 397.477C412.049 396.637 410.621 395.606 410.159 393.843C409.604 391.723 410.869 390.009 412.657 388.98C414.703 387.804 416.367 388.842 418.266 389.796C419.98 390.658 421.694 391.521 423.407 392.387C423.865 392.619 424.27 391.929 423.81 391.696Z" fill="black"/>
<path d="M355.548 356.107C358.378 355.588 361.821 355.441 364.465 354.295C366.198 353.543 366.999 351.778 367.253 349.978C367.864 345.655 363.917 343.974 360.232 344.499C357.492 344.889 352.833 345.17 352.57 348.712C352.536 350.512 352.756 352.307 353.225 354.045C353.52 355.326 354.017 356.154 355.442 356.121C355.658 356.114 355.828 355.937 355.828 355.721C355.828 355.505 355.658 355.328 355.442 355.321C353.445 355.367 353.216 350.133 353.37 348.712C353.657 346.055 357.531 345.744 359.661 345.394C361.381 345.112 363.288 344.9 364.842 345.901C366.732 347.117 366.811 349.426 366.094 351.325C365.256 353.545 363.443 353.824 361.373 354.212C359.361 354.588 357.348 354.963 355.336 355.335C354.83 355.428 355.044 356.199 355.548 356.107Z" fill="black"/>
<path d="M426.931 422.343C428.088 420.139 429.807 417.754 430.45 415.343C430.752 413.958 430.346 412.514 429.367 411.49C426.797 408.32 423.234 409.884 421.465 412.959C420.222 415.121 418.002 418.41 420.39 420.488C421.793 421.709 425.362 424.442 426.931 422.343C427.24 421.93 426.545 421.531 426.24 421.939C425.321 423.169 421.87 420.694 421.066 420.004C419.072 418.29 421.031 415.359 422.034 413.581C422.564 412.412 423.447 411.438 424.559 410.798C426.625 409.85 428.598 411.274 429.469 413.106C430.292 414.837 429.059 416.535 428.275 418.041C427.599 419.341 426.92 420.641 426.24 421.939C426.001 422.394 426.692 422.799 426.931 422.343Z" fill="black"/>
<path d="M396.132 414.19C395.239 411.906 397.02 410.586 398.783 409.57C400.24 408.73 401.836 407.662 403.513 407.358C408.286 406.494 408.238 413.525 408.182 416.524C408.178 418.3 407.985 420.071 407.606 421.807C407.382 422.756 407.092 423.957 406.18 424.502C404.543 425.48 402.915 423.662 401.96 422.677C399.567 420.14 397.587 417.245 396.091 414.095C395.862 413.633 395.172 414.038 395.4 414.498C396.561 416.939 398.001 419.237 399.693 421.345C400.967 422.882 402.647 425.185 404.777 425.521C409.498 426.265 409.027 417.084 408.976 414.466C408.908 410.962 407.731 405.542 403.055 406.646C400.747 407.29 398.601 408.414 396.758 409.945C395.313 411.136 394.656 412.601 395.36 414.403C395.545 414.877 396.319 414.671 396.132 414.19Z" fill="black"/>
<path d="M385.912 448.9C385.89 452.469 380.04 452.618 377.456 452.481C372.183 452.201 373.947 446.288 375.226 443.132C375.868 441.494 376.65 439.915 377.562 438.411C377.981 437.56 378.563 436.799 379.274 436.172C381.427 434.724 382.499 436.082 383.291 437.694C384.873 441.228 385.763 445.032 385.912 448.9C385.948 449.411 386.748 449.415 386.712 448.9C386.56 446.043 386.056 443.216 385.213 440.481C384.603 438.615 383.803 435.554 381.679 434.824C377.633 433.433 374.96 441.524 373.975 444.146C372.594 447.819 372.331 453.056 377.456 453.281C380.559 453.417 386.686 453.162 386.712 448.9C386.704 448.685 386.527 448.514 386.312 448.514C386.096 448.514 385.919 448.685 385.912 448.9Z" fill="black"/>
<path d="M396.667 436.78C396.298 440.976 395.349 445.955 398.511 449.325C399.944 450.852 402.407 452.937 404.507 453.292C406.476 453.625 406.868 451.701 407.267 450.208C408.405 445.942 409.328 440.578 405.333 437.579C403.468 436.179 397.355 432.256 396.681 436.673C396.604 437.177 397.375 437.394 397.452 436.886C397.997 433.317 404.398 437.657 405.713 438.927C408.603 441.717 407.353 446.878 406.418 450.283C406.362 450.728 406.236 451.161 406.045 451.567C405.333 452.356 404.147 452.5 403.268 451.902C402.507 451.468 401.774 450.986 401.076 450.457C399.306 449.162 397.807 447.694 397.32 445.472C396.705 442.669 397.219 439.602 397.467 436.78C397.512 436.267 396.711 436.27 396.667 436.78Z" fill="black"/>
<path d="M419.453 435.153C418.96 438.758 418.425 442.89 421.413 445.51C422.595 446.547 424.873 448.142 426.588 447.76C428.29 447.382 429.005 444.852 429.444 443.474C430.51 440.136 432.309 433.98 427.616 432.686C425.768 432.191 423.837 432.082 421.945 432.363C420.303 432.63 419.711 433.542 419.453 435.153C419.373 435.657 420.144 435.874 420.225 435.366C420.511 433.577 421.434 433.135 423.115 433.071C424.486 432.996 425.86 433.108 427.2 433.404C431.376 434.417 429.67 439.969 428.783 442.916C428.12 445.12 427.107 447.736 424.299 446.444C422.805 445.808 421.524 444.757 420.61 443.415C419.33 441.32 419.907 437.687 420.225 435.366C420.294 434.862 419.523 434.645 419.453 435.153Z" fill="black"/>
<path d="M348.935 440.579C348.923 438.414 349.089 436.252 349.432 434.114C349.574 433.254 349.75 432.4 349.941 431.55C350.185 430.466 350.218 429.389 351.232 428.864C352.677 428.117 355.229 428.77 356.704 429.306C358.861 430.09 359.756 431.725 360.562 433.737C361.148 435.201 361.72 436.685 362.158 438.201C362.389 438.989 362.573 439.789 362.709 440.599C362.87 441.57 362.923 442.838 361.921 443.483C361.562 443.714 360.525 443.562 360.073 443.569C358.241 443.623 356.408 443.5 354.6 443.202C353.085 442.932 349.36 442.264 348.92 440.473C348.798 439.973 348.026 440.185 348.149 440.686C348.601 442.527 351.145 443.155 352.74 443.598C355.37 444.25 358.083 444.506 360.789 444.358C362.773 444.301 363.807 443.579 363.645 441.491C363.443 438.89 362.435 436.351 361.498 433.948C360.807 432.176 360.135 430.369 358.476 429.285C356.471 428.144 354.174 427.62 351.873 427.777C349.655 427.899 349.5 429.811 349.097 431.659C348.455 434.589 348.132 437.58 348.135 440.579C348.142 440.795 348.319 440.966 348.535 440.966C348.751 440.966 348.928 440.795 348.935 440.579Z" fill="black"/>
<path d="M345.047 377.325C345.276 379.762 345.546 382.565 346.693 384.774C347.377 386.092 348.47 386.377 349.901 386.263C352.116 386.087 356.672 385.219 356.725 382.377C356.642 378.845 355.501 375.418 353.45 372.541C352.64 371.52 351.887 371.527 350.784 372.186C349.369 373.138 348.005 374.162 346.696 375.255C345.829 375.906 345.108 376.21 345.047 377.325C345.019 377.839 345.819 377.837 345.847 377.325C345.898 376.385 347.901 375.344 348.56 374.85C349.38 374.121 350.259 373.462 351.187 372.877C352.66 372.13 353.058 373.264 353.651 374.447C354.887 376.767 355.653 379.309 355.906 381.926C356.094 382.813 355.591 383.701 354.734 383.996C353.455 384.655 352.082 385.114 350.664 385.357C349.873 385.57 349.039 385.559 348.255 385.326C347.595 384.869 347.143 384.17 346.995 383.382C346.376 381.415 345.99 379.382 345.847 377.325C345.799 376.816 344.999 376.811 345.047 377.325Z" fill="black"/>
<path d="M369.91 410.813C370.091 413.33 370.548 415.82 371.272 418.238C371.652 419.413 372.107 420.875 373.32 421.42C375.984 422.616 380.603 420.83 382.858 419.341C384.837 418.033 383.915 415.08 383.432 413.172C382.747 410.471 381.754 406.664 379.713 404.613C378.279 403.173 376.698 404.743 375.427 405.697C373.965 406.795 372.503 407.893 371.04 408.99C370.303 409.545 369.905 409.86 369.91 410.813C369.918 411.028 370.095 411.199 370.31 411.199C370.526 411.199 370.703 411.028 370.71 410.813C370.704 409.594 373.511 408.13 374.369 407.486C375.447 406.676 376.685 405.388 378.01 405.056C378.994 404.809 379.065 404.99 379.626 405.81C379.995 406.374 380.319 406.966 380.597 407.58C381.895 410.298 383.143 413.636 383.221 416.685C383.255 418.065 382.794 418.523 381.588 419.127C379.954 419.949 378.201 420.51 376.393 420.79C375.484 421.01 374.531 420.97 373.644 420.674C372.766 420.246 372.421 419.139 372.123 418.273C371.357 415.851 370.883 413.347 370.71 410.813C370.663 410.304 369.863 410.3 369.91 410.813Z" fill="black"/>
<path d="M334.986 477.508C337.546 478.439 340.165 479.198 342.826 479.78C342.466 481.221 341.883 482.598 341.098 483.86C340.331 484.764 339.189 485.264 338.004 485.214C336.819 485.164 335.723 484.57 335.034 483.604C334.098 482.116 334.61 479.196 334.986 477.508Z" fill="black"/>
<path d="M364.242 483.478C363.862 485.045 363.177 486.522 362.226 487.825C360.698 489.625 357.29 488.697 356.346 487.033C355.498 485.553 355.826 482.929 356.058 481.609C358.75 482.378 361.482 483.002 364.242 483.478Z" fill="black"/>
<path d="M411.213 482.531C411.546 484.52 411.466 487.227 409.93 488.179C408.57 489.027 406.466 489.331 405.114 487.395C404.415 486.165 403.902 484.839 403.594 483.458C405.267 483.343 408.813 482.776 411.213 482.531Z" fill="black"/>
<path d="M432.425 485.878C430.865 487.24 428.509 487.13 427.081 485.63C426.145 484.598 425.549 482.564 425.221 481.092C427.885 480.864 430.53 480.447 433.136 479.844C433.16 480.036 433.998 484.33 432.425 485.878Z" fill="black"/>
</svg>
