<svg width="380" height="60" viewBox="0 0 380 60" fill="none" xmlns="http://www.w3.org/2000/svg">
<path fill-rule="evenodd" clip-rule="evenodd" d="M31.2688 41.7266V29.8668H35.3965L36.0145 25.2448H31.2688V22.2938C31.2688 20.9556 31.654 20.0436 33.6438 20.0436L36.1816 20.0426V15.9087C35.7426 15.8524 34.2362 15.7266 32.4837 15.7266C28.8247 15.7266 26.3198 17.8805 26.3198 21.8362V25.2448H22.1816V29.8668H26.3198V41.7266H31.2688Z" fill="white"/>
<path fill-rule="evenodd" clip-rule="evenodd" d="M105.898 41.4531C116.464 41.4531 122.242 32.6052 122.242 24.9329C122.242 24.6815 122.237 24.4313 122.226 24.1823C123.348 23.3628 124.323 22.3402 125.092 21.176C124.062 21.6382 122.955 21.9496 121.793 22.0901C122.979 21.3714 123.889 20.2339 124.319 18.8782C123.209 19.5433 121.98 20.0271 120.671 20.2876C119.623 19.1589 118.13 18.4531 116.478 18.4531C113.305 18.4531 110.732 21.0535 110.732 24.2589C110.732 24.7147 110.783 25.1577 110.881 25.5828C106.107 25.3402 101.874 23.0296 99.0406 19.5164C98.5468 20.3743 98.2625 21.3714 98.2625 22.4348C98.2625 24.4492 99.2768 26.2275 100.819 27.2678C99.8767 27.2385 98.9913 26.9768 98.2171 26.5415C98.2158 26.5657 98.2158 26.59 98.2158 26.6154C98.2158 29.4278 100.196 31.7754 102.825 32.3078C102.342 32.4405 101.834 32.512 101.31 32.512C100.94 32.512 100.58 32.475 100.23 32.4073C100.962 34.7141 103.082 36.3928 105.597 36.4401C103.63 37.9974 101.154 38.9256 98.4621 38.9256C97.9987 38.9256 97.5414 38.8987 97.0918 38.8451C99.6342 40.4919 102.653 41.4531 105.898 41.4531Z" fill="white"/>
<path fill-rule="evenodd" clip-rule="evenodd" d="M199.893 23.5888V27.1915H196.194V29.714H199.893V33.3185H202.666V29.714H206.363V27.1014H202.666V23.5888H199.893ZM183.624 26.3811V30.4351H189.17C188.8 32.7774 186.674 34.4892 183.624 34.4892C180.296 34.4892 177.523 31.6964 177.523 28.4531C177.523 25.2099 180.204 22.4171 183.624 22.4171C185.195 22.4171 186.489 22.8675 187.599 23.9486L190.557 21.0657C188.708 19.4441 186.397 18.4531 183.624 18.4531C177.985 18.4531 173.363 22.9576 173.363 28.4531C173.363 33.9486 177.985 38.4531 183.624 38.4531C189.632 38.4531 193.514 34.309 193.514 28.6333C193.514 27.9126 193.422 27.1018 193.33 26.3811H183.624Z" fill="white"/>
<path fill-rule="evenodd" clip-rule="evenodd" d="M267.653 41.7266H273.037V33.1351C273.037 30.87 273.467 28.6764 276.271 28.6764C279.034 28.6764 279.07 31.2668 279.07 33.2807V41.7266H284.455V32.2003C284.455 27.5248 283.448 23.9276 277.991 23.9276C275.37 23.9276 273.612 25.367 272.893 26.7325H272.821V24.3594H267.653V41.7266ZM261.58 15.7266C263.302 15.7266 264.703 17.1289 264.703 18.8552C264.703 20.5828 263.302 21.9854 261.58 21.9854C259.853 21.9854 258.455 20.5828 258.455 18.8552C258.455 17.1289 259.853 15.7266 261.58 15.7266ZM258.884 41.7266H264.273V24.3594H258.884V41.7266Z" fill="white"/>
<path fill-rule="evenodd" clip-rule="evenodd" d="M334.363 24.7635C334.363 21.8216 336.724 19.4531 339.656 19.4531H360.071C363.003 19.4531 365.363 21.8216 365.363 24.7635V36.1428C365.363 39.0847 363.003 41.4531 360.071 41.4531H339.656C336.724 41.4531 334.363 39.0847 334.363 36.1428V24.7635ZM355.534 30.4531L347.217 25.5221V35.3842L355.534 30.4531Z" fill="white"/>
</svg>
